# xmcd CD database file
#
# Track frame offsets:
#	150
#	22860
#	42640
#
# Disc length: 869 seconds
#
# Revision: 0
# Processed by: cddbd v1.5.1PL2 Copyright (c) Steve Scherf et al.
# Submitted via: CDex 1.51
#
DISCID=1c036303
DTITLE=マルシア - ずっと許してる
DYEAR=1996
DGENRE=J-POP
TTITLE0=ずっと許してる
TTITLE1=何を忘れればいいの
TTITLE2=ずっと許してる（ｏｒｉｇｉｎａｌ　ｋａｒａｏｋｅ）
EXTD=YEAR: 1996/3/20
EXTT0=
EXTT1=
EXTT2=
PLAYORDER=
